<svg width="24" height="24" viewBox="0 0 24 24" fill="none" xmlns="http://www.w3.org/2000/svg">
<path d="M3.12616 21.7256C6.0931 21.7256 8.32279 19.1268 9.65337 17.0732C9.49157 17.5275 9.40167 17.9818 9.40167 18.4181C9.40167 19.6175 10.0849 20.4717 11.4336 20.4717C13.2856 20.4717 15.2636 18.836 16.2886 17.0732C16.2166 17.3276 16.1807 17.5639 16.1807 17.782C16.1807 18.6179 16.6482 19.145 17.6012 19.145C20.6041 19.145 23.625 13.7839 23.625 9.09511C23.625 5.44227 21.7908 2.22559 17.1877 2.22559C9.09595 2.22559 0.375 12.1846 0.375 18.6179C0.375 21.1441 1.7236 21.7256 3.12616 21.7256ZM14.4005 8.69529C14.4005 7.78663 14.904 7.15056 15.6413 7.15056C16.3605 7.15056 16.864 7.78663 16.864 8.69529C16.864 9.60397 16.3605 10.2582 15.6413 10.2582C14.904 10.2582 14.4005 9.60397 14.4005 8.69529ZM18.2486 8.69529C18.2486 7.78663 18.752 7.15056 19.4893 7.15056C20.2085 7.15056 20.712 7.78663 20.712 8.69529C20.712 9.60397 20.2085 10.2582 19.4893 10.2582C18.752 10.2582 18.2486 9.60397 18.2486 8.69529Z" fill="#AB9FF2"/>
</svg>
